<?xml version="1.0" encoding="UTF-8" standalone="no"?>
<!-- Created with Inkscape (http://www.inkscape.org/) -->

<svg
   xmlns:dc="http://purl.org/dc/elements/1.1/"
   xmlns:cc="http://creativecommons.org/ns#"
   xmlns:rdf="http://www.w3.org/1999/02/22-rdf-syntax-ns#"
   xmlns:svg="http://www.w3.org/2000/svg"
   xmlns="http://www.w3.org/2000/svg"
   xmlns:sodipodi="http://sodipodi.sourceforge.net/DTD/sodipodi-0.dtd"
   xmlns:inkscape="http://www.inkscape.org/namespaces/inkscape"
   width="312.78571"
   height="147.70233"
   id="svg2"
   version="1.1"
   inkscape:version="0.48.4 r9939"
   sodipodi:docname="layout-change.svg">
  <defs
     id="defs4" />
  <sodipodi:namedview
     id="base"
     pagecolor="#000000"
     bordercolor="#666666"
     borderopacity="1.0"
     inkscape:pageopacity="0"
     inkscape:pageshadow="2"
     inkscape:zoom="1.4"
     inkscape:cx="191.17867"
     inkscape:cy="-9.4493757"
     inkscape:document-units="px"
     inkscape:current-layer="layer1"
     showgrid="true"
     inkscape:snap-global="false"
     inkscape:window-width="1360"
     inkscape:window-height="725"
     inkscape:window-x="0"
     inkscape:window-y="25"
     inkscape:window-maximized="1"
     fit-margin-top="0"
     fit-margin-left="0"
     fit-margin-right="0"
     fit-margin-bottom="0">
    <inkscape:grid
       type="xygrid"
       id="grid3784"
       empspacing="5"
       visible="true"
       enabled="true"
       snapvisiblegridlinesonly="true"
       originx="-39.489798px"
       originy="-712.78517px" />
  </sodipodi:namedview>
  <metadata
     id="metadata7">
    <rdf:RDF>
      <cc:Work
         rdf:about="">
        <dc:format>image/svg+xml</dc:format>
        <dc:type
           rdf:resource="http://purl.org/dc/dcmitype/StillImage" />
        <dc:title></dc:title>
      </cc:Work>
    </rdf:RDF>
  </metadata>
  <g
     inkscape:label="Layer 1"
     inkscape:groupmode="layer"
     id="layer1"
     transform="translate(-39.489798,-191.87469)">
    <rect
       style="fill:#4488ff;fill-opacity:1;stroke:#4488ff;stroke-width:0.45386755;stroke-opacity:1"
       id="rect2985"
       width="50.437912"
       height="25.596756"
       x="39.716732"
       y="192.10162" />
    <rect
       style="fill:#bbbbbb;fill-opacity:1;stroke:#bbbbbb;stroke-width:0.31242764;stroke-opacity:1"
       id="rect2985-0"
       width="50.553345"
       height="12.101317"
       x="39.962528"
       y="224.36432"
       inkscape:transform-center-x="-3.0453812" />
    <rect
       style="fill:#4488ff;fill-opacity:1;stroke:#4488ff;stroke-width:0.45386755;stroke-opacity:1"
       id="rect2985-1"
       width="50.437912"
       height="25.596756"
       x="40.020248"
       y="243.58719" />
    <rect
       style="fill:#bbbbbb;fill-opacity:1;stroke:#bbbbbb;stroke-width:0.31242764;stroke-opacity:1"
       id="rect2985-0-4"
       width="50.553345"
       height="12.101317"
       x="39.962528"
       y="294.53046"
       inkscape:transform-center-x="-3.0453796"
       inkscape:transform-center-y="-1.4849798e-05" />
    <rect
       style="fill:#bbbbbb;fill-opacity:1;stroke:#bbbbbb;stroke-width:0.31242764;stroke-opacity:1"
       id="rect2985-0-9"
       width="50.553345"
       height="12.101317"
       x="39.962528"
       y="275.39426"
       inkscape:transform-center-x="-3.0453796"
       inkscape:transform-center-y="1.4862596e-05" />
    <rect
       style="fill:#4488ff;fill-opacity:1;stroke:#4488ff;stroke-width:0.45386755;stroke-opacity:1"
       id="rect2985-6"
       width="50.437912"
       height="25.596756"
       x="40.020248"
       y="313.75333" />
    <path
       style="fill:#bbbbbb;fill-opacity:1;stroke:#bbbbbb;stroke-width:0.63750184;stroke-opacity:1"
       id="path3887"
       d="m 100.23312,326.46157 c 1.62675,0.32843 3.28192,0.28957 4.92929,0.22007 3.45836,10e-4 6.85908,-0.60615 10.23736,-1.27887 3.43108,-0.61857 6.65362,-1.91267 9.75625,-3.46348 0.52891,-0.27813 2.09731,-1.1449 1.58673,-0.83439 -1.21586,0.73945 -2.45238,1.44569 -3.70433,2.12224 -0.59042,0.31906 1.15006,-0.69219 1.71843,-1.04905 1.73997,-1.09246 3.4339,-2.2537 5.12708,-3.41646 3.85815,-2.69922 7.68953,-5.43746 11.50199,-8.20084 3.45463,-2.54498 6.93932,-5.04882 10.47195,-7.48442 4.69795,-3.39137 9.72131,-6.22322 14.74339,-9.09871 -11.63065,6.67982 1.43443,-0.82216 2.0405,-1.17922 1.62486,-0.95727 -3.26988,1.87999 -4.9129,2.80575 -0.19153,0.10791 0.37184,-0.23458 0.55777,-0.35188 0,0 6.19409,-2.39921 6.19409,-2.39921 l 0,0 c -0.19976,0.12123 -0.39765,0.24559 -0.59928,0.36366 -20.93211,12.25738 13.35625,-7.78968 -8.27788,4.79228 1.39267,-0.81492 2.78785,-1.62555 4.178,-2.44477 0.47469,-0.27973 -0.96024,0.54098 -1.43159,0.8263 -2.27089,1.37463 -4.42692,2.93081 -6.64333,4.38909 -3.57427,2.42923 -7.0839,4.9488 -10.569,7.50423 -3.79041,2.75401 -7.61417,5.46141 -11.42545,8.18652 -4.9769,3.45124 -10.088,6.72574 -15.51886,9.43157 -3.12986,1.4992 -6.36915,2.7326 -9.81198,3.29589 -3.46789,0.65481 -6.95026,1.24885 -10.48789,1.34471 -1.737397,0.0681 -3.47798,0.0366 -5.20146,-0.21992 0,0 5.54112,-3.86109 5.54112,-3.86109 z"
       inkscape:connector-curvature="0" />
    <path
       style="fill:#bbbbbb;fill-opacity:1;stroke:#bbbbbb;stroke-width:0.63750184;stroke-opacity:1"
       id="path3889"
       d="m 165.82295,295.04091 c -0.1177,0.0405 -0.24154,0.0663 -0.35311,0.12148 -1.44753,0.71605 0.80439,-0.26899 -0.76003,0.43452 -0.42172,0.18965 -0.84734,0.28557 -1.2583,0.50045 -2.36263,1.07272 -6.56953,3.60055 3.44034,-2.12114 -2.82164,1.70524 -5.60624,3.49798 -8.59066,4.90735 -1.30803,0.58927 -2.67846,1.00566 -4.06539,1.36037 -1.67467,0.4151 -3.34704,0.84333 -5.03936,1.1878 -2.79772,0.51334 -5.60916,0.95189 -8.42767,1.33554 -3.03928,0.44157 -6.07689,0.89728 -9.12738,1.25821 -1.68941,0.18445 -3.3857,0.28855 -5.08435,0.32571 -0.55906,0.0201 -0.29359,0.0136 -0.79637,0.0213 0,0 5.44708,-3.96069 5.44708,-3.96069 l 0,0 c 0.47027,0.004 0.2241,10e-4 0.73851,0.009 1.63304,-0.022 3.2659,-0.0901 4.89104,-0.25993 3.02793,-0.31945 6.03779,-0.78166 9.04986,-1.22288 2.84941,-0.41283 5.69761,-0.8614 8.51437,-1.46034 1.70673,-0.39084 3.39744,-0.83813 5.09289,-1.27353 1.36382,-0.39813 2.72247,-0.81791 3.99416,-1.46403 2.38761,-1.21641 0.83582,-0.44022 -4.51767,2.66893 -1.26747,0.73612 1.08617,-0.67485 1.29801,-0.80701 0.11832,-0.0738 0.24241,-0.13796 0.36362,-0.20694 2.65419,-1.52891 5.25817,-3.23482 8.07993,-4.46791 0.82767,-0.30853 1.60029,-0.7221 2.39182,-1.1111 0,0 -5.28134,4.22457 -5.28134,4.22457 z"
       inkscape:connector-curvature="0" />
    <path
       style="fill:#bbbbbb;fill-opacity:1;stroke:#bbbbbb;stroke-width:0.63750184;stroke-opacity:1"
       id="path3891"
       d="m 171.16455,291.33658 c -0.9158,1.11101 -1.87619,2.18447 -2.8088,3.28177 -0.84975,0.91247 -1.5707,1.92907 -2.32347,2.92016 -0.9188,1.2095 -1.82943,2.42584 -2.66534,3.69452 -0.76948,1.31916 -1.74308,2.49588 -2.65838,3.71268 -1.02555,1.20235 -1.95595,2.47388 -2.8907,3.74645 -0.88359,1.16884 -1.76136,2.34195 -2.64432,3.51129 -0.32079,0.38515 -0.59022,0.80755 -0.86097,1.22798 0,0 -6.15,2.67258 -6.15,2.67258 l 0,0 c 0.3207,-0.41836 0.55696,-0.87923 0.89268,-1.28762 0.95598,-1.12262 1.76936,-2.36052 2.69641,-3.50719 0.94565,-1.2557 1.80519,-2.57335 2.86369,-3.74141 0.92213,-1.20718 1.9097,-2.36914 2.69856,-3.67141 0.80074,-1.29926 1.70471,-2.52696 2.63979,-3.73214 0.72358,-1.01389 1.41807,-2.06845 2.29596,-2.95465 0.89385,-1.07468 1.85256,-2.09519 2.71125,-3.19963 0,0 6.20364,-2.67338 6.20364,-2.67338 z"
       inkscape:connector-curvature="0" />
    <rect
       style="fill:#4488ff;fill-opacity:1;stroke:#4488ff;stroke-width:0.45386755;stroke-opacity:1"
       id="rect2985-5"
       width="50.437912"
       height="25.596756"
       x="180.19481"
       y="192.32932" />
    <rect
       style="fill:#bbbbbb;fill-opacity:1;stroke:#bbbbbb;stroke-width:0.31242764;stroke-opacity:1"
       id="rect2985-0-7"
       width="50.553345"
       height="12.101317"
       x="244.19078"
       y="198.63658"
       inkscape:transform-center-x="-3.045375" />
    <rect
       style="fill:#4488ff;fill-opacity:1;stroke:#4488ff;stroke-width:0.45386755;stroke-opacity:1"
       id="rect2985-1-6"
       width="50.437912"
       height="25.596756"
       x="180.49832"
       y="224.23444" />
    <rect
       style="fill:#bbbbbb;fill-opacity:1;stroke:#bbbbbb;stroke-width:0.31242764;stroke-opacity:1"
       id="rect2985-0-4-0"
       width="50.553345"
       height="12.101317"
       x="301.56595"
       y="230.5526"
       inkscape:transform-center-x="-3.0453801" />
    <rect
       style="fill:#bbbbbb;fill-opacity:1;stroke:#bbbbbb;stroke-width:0.31242764;stroke-opacity:1"
       id="rect2985-0-9-3"
       width="50.553345"
       height="12.101317"
       x="244.19078"
       y="230.08606"
       inkscape:transform-center-x="-3.0453758" />
    <rect
       style="fill:#4488ff;fill-opacity:1;stroke:#4488ff;stroke-width:0.45386755;stroke-opacity:1"
       id="rect2985-6-9"
       width="50.437912"
       height="25.596756"
       x="180.49832"
       y="256.15048" />
  </g>
</svg>
